<?xml version="1.0" encoding="UTF-8"?>
<svg id="logo" xmlns="http://www.w3.org/2000/svg" viewBox="0 0 200 200">
  <defs>
    <style>
      .cls-1 {
        fill: #fff;
      }

      .cls-1, .cls-2, .cls-3 {
        stroke-width: 0px;
      }

      .cls-2 {
        fill: #141819;
      }

      .cls-3 {
        fill: #ffc907;
      }
    </style>
  </defs>
  <rect class="cls-3" x="29.08" y="68.16" width="141.84" height="63.69"/>
  <g>
    <g>
      <path class="cls-1" d="m44.69,80.36h3.16v1.66c.88-1.17,2.27-1.9,3.94-1.9,3.02,0,5.09,2.19,5.09,5.18v7.59h-3.16v-7.03c0-1.67-1.22-2.87-2.92-2.87s-2.95,1.19-2.95,2.87v7.03h-3.16v-12.53Z"/>
      <path class="cls-1" d="m65.39,80.12c3.79,0,6.7,2.82,6.7,6.49s-2.9,6.52-6.7,6.52-6.7-2.82-6.7-6.52,2.9-6.49,6.7-6.49m0,10.12c1.95,0,3.43-1.56,3.43-3.62s-1.48-3.6-3.43-3.6-3.41,1.56-3.41,3.6,1.46,3.62,3.41,3.62"/>
      <polygon class="cls-1" points="71.96 80.36 75.37 80.36 78.83 89.58 82.3 80.36 85.5 80.36 80.5 92.89 76.95 92.89 71.96 80.36"/>
      <path class="cls-1" d="m95.58,91.33c-1,1.12-2.38,1.8-4.07,1.8-3.43,0-6.07-2.82-6.07-6.52s2.63-6.49,6.07-6.49c1.68,0,3.06.68,4.07,1.83v-1.59h3.16v12.54h-3.16v-1.56Zm-3.43-1.1c1.95,0,3.43-1.56,3.43-3.62s-1.48-3.6-3.43-3.6-3.41,1.56-3.41,3.6,1.46,3.62,3.41,3.62"/>
    </g>
    <g>
      <path class="cls-2" d="m53.15,99.83h5.36l7.76,19.77h-5.14l-1.49-3.9h-7.93l-1.47,3.9h-4.85l7.76-19.77Zm.14,11.64h4.74l-2.37-6.29s-2.37,6.29-2.37,6.29Z"/>
      <path class="cls-2" d="m76.78,99.55c4.68,0,7.98,2.82,9.32,5.73l-4.46,1.7c-.82-1.66-2.58-3.02-4.86-3.02-3.11,0-5.47,2.51-5.47,5.75s2.37,5.76,5.47,5.76c2.28,0,4.03-1.36,4.86-3.02l4.46,1.7c-1.33,2.91-4.63,5.73-9.32,5.73-5.9,0-10.44-4.43-10.44-10.17s4.54-10.16,10.44-10.16"/>
      <polygon class="cls-2" points="93.31 104.07 87.53 104.07 87.53 99.84 103.89 99.84 103.89 104.07 98.11 104.07 98.11 119.6 93.31 119.6 93.31 104.07"/>
      <rect class="cls-2" x="105.87" y="99.83" width="4.8" height="19.77"/>
      <path class="cls-2" d="m123.95,99.55c5.89,0,10.44,4.43,10.44,10.16s-4.55,10.17-10.44,10.17-10.44-4.43-10.44-10.17,4.54-10.16,10.44-10.16m0,15.93c3.11,0,5.47-2.51,5.47-5.76s-2.37-5.75-5.47-5.75-5.47,2.51-5.47,5.75,2.37,5.76,5.47,5.76"/>
      <polygon class="cls-2" points="137.25 99.84 141.9 99.84 150.51 111.53 150.51 99.84 155.31 99.84 155.31 119.6 150.65 119.6 142.05 107.91 142.05 119.6 137.25 119.6 137.25 99.84"/>
    </g>
  </g>
</svg>